<mxfile host="65bd71144e">
    <diagram id="pUHNOMz69t1Qagy_BLXw" name="第1頁">
        <mxGraphModel dx="543" dy="474" grid="1" gridSize="10" guides="1" tooltips="1" connect="0" arrows="1" fold="1" page="1" pageScale="1" pageWidth="827" pageHeight="1169" math="0" shadow="0">
            <root>
                <mxCell id="0"/>
                <mxCell id="1" parent="0"/>
                <mxCell id="23" value="&lt;font style=&quot;font-size: 10px;&quot;&gt;modity and&lt;br&gt;&lt;div style=&quot;text-align: right;&quot;&gt;&lt;span style=&quot;background-color: initial;&quot;&gt;deledt&lt;/span&gt;&lt;span style=&quot;background-color: initial; white-space: pre;&quot;&gt;&#9;&lt;/span&gt;&lt;/div&gt;&lt;/font&gt;" style="shape=umlFrame;whiteSpace=wrap;html=1;fontSize=21;" parent="1" vertex="1">
                    <mxGeometry x="85" y="600" width="600" height="360" as="geometry"/>
                </mxCell>
                <mxCell id="9" value="add" style="shape=umlFrame;whiteSpace=wrap;html=1;fontSize=21;" parent="1" vertex="1">
                    <mxGeometry x="90" y="220" width="590" height="330" as="geometry"/>
                </mxCell>
                <mxCell id="26" style="edgeStyle=none;html=1;exitX=0.5;exitY=0.5;exitDx=0;exitDy=0;exitPerimeter=0;dashed=1;fontSize=10;endArrow=none;endFill=0;targetPerimeterSpacing=0;" parent="1" source="2" edge="1">
                    <mxGeometry relative="1" as="geometry">
                        <mxPoint x="180" y="970" as="targetPoint"/>
                    </mxGeometry>
                </mxCell>
                <mxCell id="2" value="administrator" style="shape=umlActor;verticalLabelPosition=bottom;verticalAlign=top;html=1;outlineConnect=0;" parent="1" vertex="1">
                    <mxGeometry x="160" y="110" width="30" height="60" as="geometry"/>
                </mxCell>
                <mxCell id="25" style="edgeStyle=none;html=1;dashed=1;fontSize=10;endArrow=none;endFill=0;targetPerimeterSpacing=0;" parent="1" source="3" edge="1">
                    <mxGeometry relative="1" as="geometry">
                        <mxPoint x="290" y="970" as="targetPoint"/>
                    </mxGeometry>
                </mxCell>
                <mxCell id="3" value="Household" style="shape=umlActor;verticalLabelPosition=bottom;verticalAlign=top;html=1;outlineConnect=0;" parent="1" vertex="1">
                    <mxGeometry x="270" y="110" width="30" height="60" as="geometry"/>
                </mxCell>
                <mxCell id="4" value="&lt;font style=&quot;font-size: 21px;&quot;&gt;app&lt;/font&gt;" style="rounded=1;whiteSpace=wrap;html=1;fillColor=#1ba1e2;fontColor=#ffffff;strokeColor=#006EAF;" parent="1" vertex="1">
                    <mxGeometry x="490" y="100" width="120" height="100" as="geometry"/>
                </mxCell>
                <mxCell id="18" style="edgeStyle=none;html=1;entryX=0.5;entryY=1;entryDx=0;entryDy=0;fontSize=21;dashed=1;endArrow=none;endFill=0;" parent="1" source="15" target="4" edge="1">
                    <mxGeometry relative="1" as="geometry"/>
                </mxCell>
                <mxCell id="22" style="edgeStyle=none;html=1;dashed=1;fontSize=21;endArrow=none;endFill=0;targetPerimeterSpacing=0;" parent="1" source="15" target="19" edge="1">
                    <mxGeometry relative="1" as="geometry"/>
                </mxCell>
                <mxCell id="15" value="" style="html=1;points=[];perimeter=orthogonalPerimeter;fontSize=21;fillColor=#1ba1e2;fontColor=#ffffff;strokeColor=#006EAF;" parent="1" vertex="1">
                    <mxGeometry x="545" y="290" width="10" height="80" as="geometry"/>
                </mxCell>
                <mxCell id="16" value="&amp;lt;announce&amp;gt;" style="html=1;verticalAlign=bottom;endArrow=classicThin;fontSize=21;targetPerimeterSpacing=30;entryX=-0.05;entryY=0.388;entryDx=0;entryDy=0;entryPerimeter=0;endFill=1;strokeWidth=2;" parent="1" target="15" edge="1">
                    <mxGeometry x="0.5365" y="-9" relative="1" as="geometry">
                        <mxPoint x="180" y="320" as="sourcePoint"/>
                        <mxPoint x="425" y="320" as="targetPoint"/>
                        <Array as="points">
                            <mxPoint x="540" y="321"/>
                        </Array>
                        <mxPoint as="offset"/>
                    </mxGeometry>
                </mxCell>
                <mxCell id="17" value="&lt;font style=&quot;font-size: 14px;&quot;&gt;&amp;lt;notificaion of success or failure &amp;gt;&lt;/font&gt;" style="html=1;verticalAlign=bottom;endArrow=classicThin;dashed=1;endSize=8;exitX=0;exitY=0.95;fontSize=21;endFill=0;strokeWidth=3;" parent="1" source="15" edge="1">
                    <mxGeometry x="0.1781" y="14" relative="1" as="geometry">
                        <mxPoint x="180" y="366" as="targetPoint"/>
                        <mxPoint as="offset"/>
                    </mxGeometry>
                </mxCell>
                <mxCell id="19" value="" style="html=1;points=[];perimeter=orthogonalPerimeter;fontSize=21;fillColor=#1ba1e2;fontColor=#ffffff;strokeColor=#006EAF;" parent="1" vertex="1">
                    <mxGeometry x="545" y="450" width="10" height="80" as="geometry"/>
                </mxCell>
                <mxCell id="21" value="&lt;font style=&quot;font-size: 13px;&quot;&gt;&amp;lt;Response of&lt;br&gt;success or failure&amp;gt;&lt;/font&gt;" style="html=1;verticalAlign=bottom;endArrow=classicThin;dashed=1;endSize=8;fontSize=21;targetPerimeterSpacing=0;endFill=0;strokeWidth=3;" parent="1" source="19" edge="1">
                    <mxGeometry x="-0.1765" y="30" relative="1" as="geometry">
                        <mxPoint x="290" y="510" as="targetPoint"/>
                        <mxPoint x="540" y="520" as="sourcePoint"/>
                        <mxPoint as="offset"/>
                    </mxGeometry>
                </mxCell>
                <mxCell id="31" value="&lt;font style=&quot;font-size: 17px;&quot;&gt;&amp;lt;Response&amp;gt;&lt;/font&gt;" style="html=1;verticalAlign=bottom;endArrow=classicThin;fontSize=21;targetPerimeterSpacing=30;entryX=-0.05;entryY=0.388;entryDx=0;entryDy=0;entryPerimeter=0;endFill=1;strokeWidth=2;" parent="1" edge="1">
                    <mxGeometry x="0.4121" y="-9" relative="1" as="geometry">
                        <mxPoint x="290" y="470" as="sourcePoint"/>
                        <mxPoint x="545" y="471.0400000000001" as="targetPoint"/>
                        <Array as="points">
                            <mxPoint x="540.5" y="471"/>
                        </Array>
                        <mxPoint as="offset"/>
                    </mxGeometry>
                </mxCell>
                <mxCell id="34" style="edgeStyle=none;html=1;strokeWidth=1;fontSize=13;endArrow=none;endFill=0;targetPerimeterSpacing=0;dashed=1;" parent="1" source="33" target="19" edge="1">
                    <mxGeometry relative="1" as="geometry"/>
                </mxCell>
                <mxCell id="33" value="" style="html=1;points=[];perimeter=orthogonalPerimeter;fontSize=21;fillColor=#1ba1e2;fontColor=#ffffff;strokeColor=#006EAF;" parent="1" vertex="1">
                    <mxGeometry x="545" y="620" width="10" height="80" as="geometry"/>
                </mxCell>
                <mxCell id="36" style="edgeStyle=none;html=1;dashed=1;strokeWidth=1;fontSize=13;endArrow=none;endFill=0;targetPerimeterSpacing=0;" parent="1" source="35" target="33" edge="1">
                    <mxGeometry relative="1" as="geometry"/>
                </mxCell>
                <mxCell id="37" style="edgeStyle=none;html=1;entryX=0.774;entryY=1.008;entryDx=0;entryDy=0;entryPerimeter=0;dashed=1;strokeWidth=1;fontSize=13;endArrow=none;endFill=0;targetPerimeterSpacing=0;" parent="1" source="35" target="23" edge="1">
                    <mxGeometry relative="1" as="geometry"/>
                </mxCell>
                <mxCell id="35" value="" style="html=1;points=[];perimeter=orthogonalPerimeter;fontSize=21;fillColor=#1ba1e2;fontColor=#ffffff;strokeColor=#006EAF;" parent="1" vertex="1">
                    <mxGeometry x="545" y="810" width="10" height="80" as="geometry"/>
                </mxCell>
                <mxCell id="39" style="edgeStyle=none;html=1;strokeWidth=3;fontSize=13;endArrow=classicThin;endFill=0;targetPerimeterSpacing=0;" parent="1" edge="1">
                    <mxGeometry relative="1" as="geometry">
                        <mxPoint x="180" y="660" as="sourcePoint"/>
                        <mxPoint x="545" y="660" as="targetPoint"/>
                    </mxGeometry>
                </mxCell>
                <mxCell id="40" value="&amp;lt;modify&amp;gt;" style="edgeLabel;html=1;align=center;verticalAlign=middle;resizable=0;points=[];fontSize=13;" parent="39" vertex="1" connectable="0">
                    <mxGeometry x="0.495" y="1" relative="1" as="geometry">
                        <mxPoint as="offset"/>
                    </mxGeometry>
                </mxCell>
                <mxCell id="42" value="&lt;span style=&quot;font-size: 14px;&quot;&gt;&amp;lt;modification success of failure&amp;gt;&lt;/span&gt;" style="html=1;verticalAlign=bottom;endArrow=classicThin;dashed=1;endSize=8;exitX=0;exitY=0.95;fontSize=21;endFill=0;strokeWidth=3;" parent="1" edge="1">
                    <mxGeometry x="0.1781" y="14" relative="1" as="geometry">
                        <mxPoint x="180" y="690" as="targetPoint"/>
                        <mxPoint x="545" y="690" as="sourcePoint"/>
                        <mxPoint as="offset"/>
                    </mxGeometry>
                </mxCell>
                <mxCell id="43" style="edgeStyle=none;html=1;strokeWidth=3;fontSize=13;endArrow=classicThin;endFill=0;targetPerimeterSpacing=0;" parent="1" edge="1">
                    <mxGeometry relative="1" as="geometry">
                        <mxPoint x="180" y="830" as="sourcePoint"/>
                        <mxPoint x="545" y="830" as="targetPoint"/>
                    </mxGeometry>
                </mxCell>
                <mxCell id="44" value="&amp;lt;delete&amp;gt;" style="edgeLabel;html=1;align=center;verticalAlign=middle;resizable=0;points=[];fontSize=13;" parent="43" vertex="1" connectable="0">
                    <mxGeometry x="0.495" y="1" relative="1" as="geometry">
                        <mxPoint as="offset"/>
                    </mxGeometry>
                </mxCell>
                <mxCell id="45" value="&lt;span style=&quot;font-size: 14px;&quot;&gt;&amp;lt;Delete success or failure&amp;gt;&lt;/span&gt;" style="html=1;verticalAlign=bottom;endArrow=classicThin;dashed=1;endSize=8;exitX=0;exitY=0.95;fontSize=21;endFill=0;strokeWidth=3;" parent="1" edge="1">
                    <mxGeometry x="0.1781" y="14" relative="1" as="geometry">
                        <mxPoint x="180" y="860" as="targetPoint"/>
                        <mxPoint x="545" y="860" as="sourcePoint"/>
                        <mxPoint as="offset"/>
                    </mxGeometry>
                </mxCell>
            </root>
        </mxGraphModel>
    </diagram>
</mxfile>